<?xml version="1.0" encoding="UTF-8" standalone="no" ?>
<!DOCTYPE svg PUBLIC "-//W3C//DTD SVG 1.1//EN" "http://www.w3.org/Graphics/SVG/1.1/DTD/svg11.dtd">
<svg xmlns="http://www.w3.org/2000/svg" xmlns:xlink="http://www.w3.org/1999/xlink" version="1.1" width="60" height="60" viewBox="0 0 60 60" xml:space="preserve">
<desc>Created with Fabric.js 4.6.0</desc>
<defs>
</defs>
<g transform="matrix(1.46 0 0 1.42 27.77 28.69)" id="BuuDxON4ju5s0n4sV2nUn"  >
<path style="stroke: rgb(255,243,18); stroke-width: 1; stroke-dasharray: none; stroke-linecap: butt; stroke-dashoffset: 0; stroke-linejoin: miter; stroke-miterlimit: 4; fill: none; fill-rule: nonzero; opacity: 1;" vector-effect="non-scaling-stroke"  transform=" translate(0, 0)" d="M 0 -13.69863 C 7.56164 -13.69863 13.69863 -7.56164 13.69863 0 C 13.69863 7.56164 7.56164 13.69863 0 13.69863 C -7.56164 13.69863 -13.69863 7.56164 -13.69863 0 C -13.69863 -7.56164 -7.56164 -13.69863 0 -13.69863 z" stroke-linecap="round" />
</g>
<g transform="matrix(1 0 0 1 23.73 16.12)" id="kfUYYwxpUKTtVDfcnGHd6"  >
<path style="stroke: rgb(255,243,18); stroke-width: 1; stroke-dasharray: none; stroke-linecap: butt; stroke-dashoffset: 0; stroke-linejoin: miter; stroke-miterlimit: 4; fill: rgb(255,255,255); fill-opacity: 0; fill-rule: nonzero; opacity: 1;" vector-effect="non-scaling-stroke"  transform=" translate(0, 0)" d="M 0 0" stroke-linecap="round" />
</g>
<g transform="matrix(1.02 0 0 1 29.05 27.48)" id="XG07e7lhUn_Jl-zDj74Vn"  >
<path style="stroke: rgb(255,243,18); stroke-width: 1; stroke-dasharray: none; stroke-linecap: butt; stroke-dashoffset: 0; stroke-linejoin: miter; stroke-miterlimit: 4; fill: none; fill-rule: nonzero; opacity: 1;" vector-effect="non-scaling-stroke"  transform=" translate(0, 0)" d="M -1.99392 1.75884 L 1.2324599999999999 6.10579 L 1.2324599999999999 6.10579 C 1.3090499999999998 6.20899 1.42356 6.27599 1.54965 6.291399999999999 C 1.67574 6.30681 1.80255 6.26929 1.90093 6.18748 L 4.40713 4.1032399999999996 L 4.40713 4.1032399999999996 C 4.497960000000001 4.02771 4.61591 3.9948399999999995 4.73183 4.012779999999999 C 4.8477500000000004 4.030709999999999 4.9508 4.09777 5.01552 4.197369999999999 L 9.86283 11.65711 L 9.86283 11.65711 C 9.939 11.774329999999999 9.9603 11.919889999999999 9.92101 12.05464 C 9.881720000000001 12.1894 9.78588 12.29951 9.65925 12.35536 L 7.59441 13.2661 L 7.59441 13.2661 C 5.88471 14.020199999999999 3.91747 13.848419999999999 2.3586599999999995 12.80892 L 2.0393199999999996 12.595970000000001 L 2.0393199999999996 12.595970000000001 C -4.442410000000001 8.273590000000002 -8.75749 1.2919800000000006 -9.78238 -6.531019999999998 L -9.90678 -7.480569999999998 L -9.90678 -7.480569999999998 C -10.06043 -8.613429999999997 -9.680919999999999 -9.753809999999998 -8.88267 -10.557869999999998 L -5.92151 -13.693209999999997 L -5.92151 -13.693209999999997 C -5.89556 -13.720829999999998 -5.8583799999999995 -13.734429999999996 -5.82111 -13.729939999999997 C -5.78384 -13.725449999999997 -5.75081 -13.703389999999997 -5.73189 -13.670369999999997 L -1.3062399999999998 -6.033929999999996 L -1.3062399999999998 -6.033929999999996 C -1.2406599999999999 -5.920779999999996 -1.2231699999999999 -5.785289999999996 -1.2577899999999997 -5.658709999999997 C -1.2924099999999998 -5.532129999999997 -1.3761599999999998 -5.425379999999997 -1.4897299999999998 -5.363089999999996 L -4.877509999999999 -3.5047899999999963 L -4.877509999999999 -3.5047899999999963 C -4.994839999999999 -3.440429999999996 -5.079899999999999 -3.3284199999999964 -5.1115699999999995 -3.1965499999999962 C -5.14324 -3.064679999999996 -5.118569999999999 -2.925309999999996 -5.04367 -2.8130299999999964 z" stroke-linecap="round" />
</g>
</svg>