<?xml version="1.0" encoding="UTF-8" standalone="no" ?>
<!DOCTYPE svg PUBLIC "-//W3C//DTD SVG 1.1//EN" "http://www.w3.org/Graphics/SVG/1.1/DTD/svg11.dtd">
<svg xmlns="http://www.w3.org/2000/svg" xmlns:xlink="http://www.w3.org/1999/xlink" version="1.1" width="60" height="60" viewBox="0 0 60 60" xml:space="preserve">
<desc>Created with Fabric.js 4.6.0</desc>
<defs>
</defs>
<g transform="matrix(1.58 0 0 1.3 285.41 282.23)" id="zSTHv0spkUn1iYDaMWgQ2"  >
<path style="stroke: rgb(255,243,18); stroke-width: 1; stroke-dasharray: none; stroke-linecap: butt; stroke-dashoffset: 0; stroke-linejoin: miter; stroke-miterlimit: 4; fill: none; fill-rule: nonzero; opacity: 1;" vector-effect="non-scaling-stroke"  transform=" translate(0, 0)" d="M 0 -22.71108 C 10.28133 -22.71108 18.62562 -12.53651 18.62562 0 C 18.62562 12.53651 10.281340000000002 22.71108 0 22.71108 C -10.28133 22.71108 -18.62562 12.53651 -18.62562 0 C -18.62562 -12.53651 -10.281340000000002 -22.71108 0 -22.71108 z" stroke-linecap="round" />
</g>
<g transform="matrix(1 0 0 1 214.56 274.54)" id="iyVD_y1f1VQCUuc9Jd6rI"  >
<g style="" vector-effect="non-scaling-stroke"   >
		<g transform="matrix(1.46 0 0 1.42 -2.23 -1.31)" id="ZEeLTgN9MDPxd6Fzt1Z9q"  >
<path style="stroke: rgb(255,243,18); stroke-width: 1; stroke-dasharray: none; stroke-linecap: butt; stroke-dashoffset: 0; stroke-linejoin: miter; stroke-miterlimit: 4; fill: none; fill-rule: nonzero; opacity: 1;" vector-effect="non-scaling-stroke"  transform=" translate(0, 0)" d="M 0 -13.69863 C 7.56164 -13.69863 13.69863 -7.56164 13.69863 0 C 13.69863 7.56164 7.56164 13.69863 0 13.69863 C -7.56164 13.69863 -13.69863 7.56164 -13.69863 0 C -13.69863 -7.56164 -7.56164 -13.69863 0 -13.69863 z" stroke-linecap="round" />
</g>
		<g transform="matrix(1 0 0 1 -6.27 -13.88)" id="bGvcHHlnOwgMVJplTcrs2"  >
<path style="stroke: rgb(255,243,18); stroke-width: 1; stroke-dasharray: none; stroke-linecap: butt; stroke-dashoffset: 0; stroke-linejoin: miter; stroke-miterlimit: 4; fill: rgb(255,255,255); fill-opacity: 0; fill-rule: nonzero; opacity: 1;" vector-effect="non-scaling-stroke"  transform=" translate(0, 0)" d="M 0 0" stroke-linecap="round" />
</g>
		<g transform="matrix(1.02 0 0 1 -0.95 -2.52)" id="ov24JmIKCIViOkdI1YX2Y"  >
<path style="stroke: rgb(255,243,18); stroke-width: 1; stroke-dasharray: none; stroke-linecap: butt; stroke-dashoffset: 0; stroke-linejoin: miter; stroke-miterlimit: 4; fill: none; fill-rule: nonzero; opacity: 1;" vector-effect="non-scaling-stroke"  transform=" translate(0, 0)" d="M -1.99392 1.75884 L 1.2324599999999999 6.10579 L 1.2324599999999999 6.10579 C 1.3090499999999998 6.20899 1.42356 6.27599 1.54965 6.291399999999999 C 1.67574 6.30681 1.80255 6.26929 1.90093 6.18748 L 4.40713 4.1032399999999996 L 4.40713 4.1032399999999996 C 4.497960000000001 4.02771 4.61591 3.9948399999999995 4.73183 4.012779999999999 C 4.8477500000000004 4.030709999999999 4.9508 4.09777 5.01552 4.197369999999999 L 9.86283 11.65711 L 9.86283 11.65711 C 9.939 11.774329999999999 9.9603 11.919889999999999 9.92101 12.05464 C 9.881720000000001 12.1894 9.78588 12.29951 9.65925 12.35536 L 7.59441 13.2661 L 7.59441 13.2661 C 5.88471 14.020199999999999 3.91747 13.848419999999999 2.3586599999999995 12.80892 L 2.0393199999999996 12.595970000000001 L 2.0393199999999996 12.595970000000001 C -4.442410000000001 8.273590000000002 -8.75749 1.2919800000000006 -9.78238 -6.531019999999998 L -9.90678 -7.480569999999998 L -9.90678 -7.480569999999998 C -10.06043 -8.613429999999997 -9.680919999999999 -9.753809999999998 -8.88267 -10.557869999999998 L -5.92151 -13.693209999999997 L -5.92151 -13.693209999999997 C -5.89556 -13.720829999999998 -5.8583799999999995 -13.734429999999996 -5.82111 -13.729939999999997 C -5.78384 -13.725449999999997 -5.75081 -13.703389999999997 -5.73189 -13.670369999999997 L -1.3062399999999998 -6.033929999999996 L -1.3062399999999998 -6.033929999999996 C -1.2406599999999999 -5.920779999999996 -1.2231699999999999 -5.785289999999996 -1.2577899999999997 -5.658709999999997 C -1.2924099999999998 -5.532129999999997 -1.3761599999999998 -5.425379999999997 -1.4897299999999998 -5.363089999999996 L -4.877509999999999 -3.5047899999999963 L -4.877509999999999 -3.5047899999999963 C -4.994839999999999 -3.440429999999996 -5.079899999999999 -3.3284199999999964 -5.1115699999999995 -3.1965499999999962 C -5.14324 -3.064679999999996 -5.118569999999999 -2.925309999999996 -5.04367 -2.8130299999999964 z" stroke-linecap="round" />
</g>
</g>
</g>
<g transform="matrix(0.44 0 0 0.43 282.07 280.69)" id="ZNe_mvPvtqV7MBUKN0N5r"  >
<path style="stroke: rgb(255,243,18); stroke-width: 1; stroke-dasharray: none; stroke-linecap: butt; stroke-dashoffset: 0; stroke-linejoin: miter; stroke-miterlimit: 4; fill: none; fill-rule: nonzero; opacity: 1;" vector-effect="non-scaling-stroke"  transform=" translate(0, 0)" d="M -1.99391 1.75886 L 1.2324699999999997 6.10581 L 1.2324699999999997 6.10581 C 1.3090599999999997 6.20901 1.4235699999999998 6.27601 1.5496599999999998 6.29142 C 1.6757499999999999 6.30683 1.8025599999999997 6.26931 1.9009399999999999 6.1875 L 4.40714 4.103260000000001 L 4.40714 4.103260000000001 C 4.4979700000000005 4.027730000000001 4.61592 3.9948600000000005 4.73184 4.0128 C 4.84776 4.03073 4.95081 4.097790000000001 5.01553 4.19739 L 9.86284 11.65713 L 9.86284 11.65713 C 9.93901 11.77435 9.96031 11.91991 9.92102 12.05466 C 9.881730000000001 12.18942 9.78589 12.29953 9.65926 12.35538 L 7.5944199999999995 13.26612 L 7.5944199999999995 13.26612 C 5.88472 14.02022 3.9174799999999994 13.84844 2.358669999999999 12.808940000000002 L 2.039329999999999 12.595990000000002 L 2.039329999999999 12.595990000000002 C -4.442400000000001 8.273610000000001 -8.757480000000001 1.2920000000000016 -9.78237 -6.530999999999997 L -9.90677 -7.480549999999997 L -9.90677 -7.480549999999997 C -10.06042 -8.613409999999998 -9.680909999999999 -9.753789999999997 -8.88266 -10.557849999999998 L -5.9215 -13.693189999999998 L -5.9215 -13.693189999999998 C -5.89555 -13.720809999999998 -5.85837 -13.734409999999997 -5.8211 -13.729919999999998 C -5.78383 -13.725429999999998 -5.750800000000001 -13.703369999999998 -5.73188 -13.670349999999997 L -1.3062300000000002 -6.033909999999997 L -1.3062300000000002 -6.033909999999997 C -1.2406500000000003 -5.920759999999997 -1.2231600000000002 -5.785269999999997 -1.2577800000000001 -5.658689999999997 C -1.2924000000000002 -5.532109999999998 -1.3761500000000002 -5.425359999999998 -1.4897200000000002 -5.363069999999997 L -4.8774999999999995 -3.504769999999997 L -4.8774999999999995 -3.504769999999997 C -4.994829999999999 -3.440409999999997 -5.07989 -3.328399999999997 -5.11156 -3.196529999999997 C -5.14323 -3.064659999999997 -5.1185599999999996 -2.925289999999997 -5.04366 -2.813009999999997 z" stroke-linecap="round" />
</g>
<g transform="matrix(1.58 0 0 1.6 262.45 277.32)" id="l6anR0koIuUPeWg0spHGh"  >
<path style="stroke: rgb(255,243,18); stroke-width: 1; stroke-dasharray: none; stroke-linecap: butt; stroke-dashoffset: 0; stroke-linejoin: miter; stroke-miterlimit: 4; fill: rgb(255,255,255); fill-opacity: 0; fill-rule: nonzero; opacity: 1;" vector-effect="non-scaling-stroke"  transform=" translate(0, 0)" d="M 0 0" stroke-linecap="round" />
</g>
<g transform="matrix(1.43 0 0 1.7 285.5 284)" id="Sl7QVTRKbmyOz8AIjW8fe"  >
<path style="stroke: rgb(255,243,18); stroke-width: 1; stroke-dasharray: none; stroke-linecap: butt; stroke-dashoffset: 0; stroke-linejoin: miter; stroke-miterlimit: 4; fill: rgb(255,255,255); fill-opacity: 0; fill-rule: nonzero; opacity: 1;" vector-effect="non-scaling-stroke"  transform=" translate(0, 0)" d="M -5.66598 8.82926 L -4.8083800000000005 5.02642 L -4.8083800000000005 5.02642 C -4.80789 5.02423 -4.808960000000001 5.02199 -4.81113 5.0207 L -6.511240000000001 4.00807 L -6.511240000000001 4.00807 C -7.460800000000001 3.4424900000000003 -8.025010000000002 2.5256600000000002 -8.025010000000002 1.5482300000000002 L -8.025010000000002 -5.2314 L -8.025010000000002 -5.2314 C -8.025010000000002 -6.030139999999999 -7.6338300000000014 -6.793749999999999 -6.943200000000002 -7.34314 L -6.402740000000001 -7.77307 L -6.402740000000001 -7.77307 C -5.550200000000001 -8.45126 -4.420410000000001 -8.82926 -3.2459300000000013 -8.82926 L 3.6165299999999982 -8.82926 L 3.6165299999999982 -8.82926 C 4.862549999999998 -8.82926 6.047969999999998 -8.37791 6.868849999999998 -7.590949999999999 L 6.868849999999998 -7.590949999999999 L 6.868849999999998 -7.590949999999999 C 7.614149999999999 -6.87644 8.024999999999999 -5.959019999999999 8.024999999999999 -5.009269999999999 L 8.024999999999999 1.9666900000000007 L 8.024999999999999 1.9666900000000007 C 8.024999999999999 2.6936500000000008 7.665399999999998 3.3879600000000005 7.032119999999999 3.883750000000001 L 7.032119999999999 3.883750000000001 L 7.032119999999999 3.883750000000001 C 6.097109999999999 4.615760000000001 4.866209999999999 5.022820000000001 3.587729999999999 5.022820000000001 L -0.7597100000000006 5.022820000000001 L -0.7597100000000006 5.022820000000001 C -0.7964900000000006 5.022820000000001 -0.8318900000000006 5.034550000000001 -0.8587500000000006 5.055640000000001 z" stroke-linecap="round" />
</g>
<g transform="matrix(1.58 0 0 1.6 284.84 281.48)" id="jmf_NdKikMbcuFBFH2Ud3"  >
<path style="stroke: rgb(255,243,18); stroke-width: 1; stroke-dasharray: none; stroke-linecap: butt; stroke-dashoffset: 0; stroke-linejoin: miter; stroke-miterlimit: 4; fill: rgb(255,255,255); fill-opacity: 0; fill-rule: nonzero; opacity: 1;" vector-effect="non-scaling-stroke"  transform=" translate(0, 0)" d="M 0 0" stroke-linecap="round" />
</g>
<g transform="matrix(1.58 0 0 1.6 286.96 267.58)" id="f3PMnt26bIku8Lf51a88m"  >
<path style="stroke: rgb(255,243,18); stroke-width: 1; stroke-dasharray: none; stroke-linecap: butt; stroke-dashoffset: 0; stroke-linejoin: miter; stroke-miterlimit: 4; fill: rgb(255,255,255); fill-opacity: 0; fill-rule: nonzero; opacity: 1;" vector-effect="non-scaling-stroke"  transform=" translate(0, 0)" d="M 0 0" stroke-linecap="round" />
</g>
<g transform="matrix(1.31 0 0 1.33 287.92 276.78)" id="p6reMrR90ktDAs-58U5DY"  >
<path style="stroke: rgb(255,243,18); stroke-width: 0.5; stroke-dasharray: none; stroke-linecap: butt; stroke-dashoffset: 0; stroke-linejoin: miter; stroke-miterlimit: 4; fill: rgb(255,255,255); fill-opacity: 0; fill-rule: nonzero; opacity: 1;" vector-effect="non-scaling-stroke"  transform=" translate(0, 0)" d="M -2.50467 -3.53352 L -1.86715 -3.1754700000000002 C 0.25349999999999984 -1.9844400000000002 1.76029 0.06020999999999965 2.26998 2.43843 L 2.50467 3.5335199999999998" stroke-linecap="round" />
</g>
<g transform="matrix(1.58 0 0 1.6 285.41 278.65)" id="b7VapCNYSzbCHfwShIjOg"  >
<path style="stroke: rgb(255,243,18); stroke-width: 0.5; stroke-dasharray: none; stroke-linecap: butt; stroke-dashoffset: 0; stroke-linejoin: miter; stroke-miterlimit: 4; fill: rgb(255,255,255); fill-opacity: 0; fill-rule: nonzero; opacity: 1;" vector-effect="non-scaling-stroke"  transform=" translate(0, 0)" d="M -0.68829 -0.9388 L -0.22427999999999998 -0.54861 C 0.06706000000000001 -0.30362 0.29602 0.00708999999999993 0.44373 0.3579199999999999 L 0.6882900000000001 0.9387899999999999" stroke-linecap="round" />
</g>
<g transform="matrix(1.58 0 0 1.6 286.66 277.66)" id="1XqyK6zbuHAxSgWoZCqhh"  >
<path style="stroke: rgb(255,243,18); stroke-width: 0.5; stroke-dasharray: none; stroke-linecap: butt; stroke-dashoffset: 0; stroke-linejoin: miter; stroke-miterlimit: 4; fill: rgb(255,255,255); fill-opacity: 0; fill-rule: nonzero; opacity: 1;" vector-effect="non-scaling-stroke"  transform=" translate(0, 0)" d="M -1.37723 -1.87688 L -0.65626 -1.34741 C 0.22260000000000002 -0.70199 0.8692300000000001 0.21028000000000002 1.18715 1.2532999999999999 L 1.3772199999999999 1.8768799999999999" stroke-linecap="round" />
</g>
<g transform="matrix(1.04 0 0 0.86 30.54 29.76)" id="ntTKmE3GjEJTDWbqsbaSU"  >
<path style="stroke: rgb(255,243,18); stroke-width: 1; stroke-dasharray: none; stroke-linecap: butt; stroke-dashoffset: 0; stroke-linejoin: miter; stroke-miterlimit: 4; fill: none; fill-rule: nonzero; opacity: 1;" vector-effect="non-scaling-stroke"  transform=" translate(0, 0)" d="M 0 -22.71108 C 10.28133 -22.71108 18.62562 -12.53651 18.62562 0 C 18.62562 12.53651 10.281340000000002 22.71108 0 22.71108 C -10.28133 22.71108 -18.62562 12.53651 -18.62562 0 C -18.62562 -12.53651 -10.281340000000002 -22.71108 0 -22.71108 z" stroke-linecap="round" />
</g>
<g transform="matrix(0.39 0 0 0.38 28.49 28.95)" id="S2OsRAPZJ1aRQYXxxEkls"  >
<path style="stroke: rgb(255,243,18); stroke-width: 1; stroke-dasharray: none; stroke-linecap: butt; stroke-dashoffset: 0; stroke-linejoin: miter; stroke-miterlimit: 4; fill: none; fill-rule: nonzero; opacity: 1;" vector-effect="non-scaling-stroke"  transform=" translate(0, 0)" d="M -1.99391 1.75886 L 1.2324699999999997 6.10581 L 1.2324699999999997 6.10581 C 1.3090599999999997 6.20901 1.4235699999999998 6.27601 1.5496599999999998 6.29142 C 1.6757499999999999 6.30683 1.8025599999999997 6.26931 1.9009399999999999 6.1875 L 4.40714 4.103260000000001 L 4.40714 4.103260000000001 C 4.4979700000000005 4.027730000000001 4.61592 3.9948600000000005 4.73184 4.0128 C 4.84776 4.03073 4.95081 4.097790000000001 5.01553 4.19739 L 9.86284 11.65713 L 9.86284 11.65713 C 9.93901 11.77435 9.96031 11.91991 9.92102 12.05466 C 9.881730000000001 12.18942 9.78589 12.29953 9.65926 12.35538 L 7.5944199999999995 13.26612 L 7.5944199999999995 13.26612 C 5.88472 14.02022 3.9174799999999994 13.84844 2.358669999999999 12.808940000000002 L 2.039329999999999 12.595990000000002 L 2.039329999999999 12.595990000000002 C -4.442400000000001 8.273610000000001 -8.757480000000001 1.2920000000000016 -9.78237 -6.530999999999997 L -9.90677 -7.480549999999997 L -9.90677 -7.480549999999997 C -10.06042 -8.613409999999998 -9.680909999999999 -9.753789999999997 -8.88266 -10.557849999999998 L -5.9215 -13.693189999999998 L -5.9215 -13.693189999999998 C -5.89555 -13.720809999999998 -5.85837 -13.734409999999997 -5.8211 -13.729919999999998 C -5.78383 -13.725429999999998 -5.750800000000001 -13.703369999999998 -5.73188 -13.670349999999997 L -1.3062300000000002 -6.033909999999997 L -1.3062300000000002 -6.033909999999997 C -1.2406500000000003 -5.920759999999997 -1.2231600000000002 -5.785269999999997 -1.2577800000000001 -5.658689999999997 C -1.2924000000000002 -5.532109999999998 -1.3761500000000002 -5.425359999999998 -1.4897200000000002 -5.363069999999997 L -4.8774999999999995 -3.504769999999997 L -4.8774999999999995 -3.504769999999997 C -4.994829999999999 -3.440409999999997 -5.07989 -3.328399999999997 -5.11156 -3.196529999999997 C -5.14323 -3.064659999999997 -5.1185599999999996 -2.925289999999997 -5.04366 -2.813009999999997 z" stroke-linecap="round" />
</g>
<g transform="matrix(1.21 0 0 1.26 30.7 31.2)" id="LmQkcLyDyDaaWYmMfQqJn"  >
<path style="stroke: rgb(255,243,18); stroke-width: 1; stroke-dasharray: none; stroke-linecap: butt; stroke-dashoffset: 0; stroke-linejoin: miter; stroke-miterlimit: 4; fill: rgb(255,255,255); fill-opacity: 0; fill-rule: nonzero; opacity: 1;" vector-effect="non-scaling-stroke"  transform=" translate(0, 0)" d="M -5.66598 8.82925 L -4.808870000000001 5.0286 L -4.808870000000001 5.0286 C -4.80808 5.02508 -4.8097900000000005 5.02149 -4.813250000000001 5.01943 L -7.001360000000001 3.7161399999999998 L -7.001360000000001 3.7161399999999998 C -7.643090000000001 3.33391 -8.025 2.71087 -8.025 2.04622 L -8.025 -5.23338 L -8.025 -5.23338 C -8.025 -6.03045 -7.365410000000001 -7.07601 -6.679600000000001 -7.621560000000001 L -6.150460000000001 -7.973750000000001 L -6.150460000000001 -7.973750000000001 C -5.459580000000001 -8.523340000000001 -4.547540000000001 -8.82925 -3.599910000000001 -8.82925 L 4.057139999999999 -8.82925 L 4.057139999999999 -8.82925 C 5.023669999999998 -8.82925 5.943729999999999 -8.47784 6.5838199999999985 -7.8642 L 7.085049999999998 -7.38368 L 7.085049999999998 -7.38368 C 7.690709999999998 -6.80304 8.025009999999998 -6.05484 8.025009999999998 -5.279920000000001 L 8.025009999999998 1.9848799999999995 L 8.025009999999998 1.9848799999999995 C 8.025009999999998 2.6998599999999993 7.672579999999998 3.3823499999999997 7.052819999999998 3.8675499999999996 L 6.5149399999999975 4.28865 L 6.5149399999999975 4.28865 C 5.912009999999998 4.760669999999999 5.1212899999999975 5.022819999999999 4.300399999999998 5.022819999999999 L -0.7267500000000018 5.022819999999999 L -0.7267500000000018 5.022819999999999 C -0.7847300000000018 5.022819999999999 -0.8405700000000018 5.04137 -0.8831100000000018 5.0747599999999995 z" stroke-linecap="round" />
</g>
<g transform="matrix(1.04 0 0 1.06 31.56 20.09)" id="6VWrtLkCkZSOpa0KbbcTT"  >
<path style="stroke: rgb(255,243,18); stroke-width: 1; stroke-dasharray: none; stroke-linecap: butt; stroke-dashoffset: 0; stroke-linejoin: miter; stroke-miterlimit: 4; fill: rgb(255,255,255); fill-opacity: 0; fill-rule: nonzero; opacity: 1;" vector-effect="non-scaling-stroke"  transform=" translate(0, 0)" d="M 0 0" stroke-linecap="round" />
</g>
<g transform="matrix(1.04 0 0 1.06 30.54 27.4)" id="jyIq4AqhE0r8Iop4V5YmW"  >
<path style="stroke: rgb(255,243,18); stroke-width: 0.5; stroke-dasharray: none; stroke-linecap: butt; stroke-dashoffset: 0; stroke-linejoin: miter; stroke-miterlimit: 4; fill: rgb(255,255,255); fill-opacity: 0; fill-rule: nonzero; opacity: 1;" vector-effect="non-scaling-stroke"  transform=" translate(0, 0)" d="M -0.68829 -0.9388 L -0.22427999999999998 -0.54861 C 0.06706000000000001 -0.30362 0.29602 0.00708999999999993 0.44373 0.3579199999999999 L 0.6882900000000001 0.9387899999999999" stroke-linecap="round" />
</g>
<g transform="matrix(1.04 0 0 1.06 31.37 26.75)" id="EnNhgO5-6NqMQapy10kaL"  >
<path style="stroke: rgb(255,243,18); stroke-width: 0.5; stroke-dasharray: none; stroke-linecap: butt; stroke-dashoffset: 0; stroke-linejoin: miter; stroke-miterlimit: 4; fill: rgb(255,255,255); fill-opacity: 0; fill-rule: nonzero; opacity: 1;" vector-effect="non-scaling-stroke"  transform=" translate(0, 0)" d="M -1.37723 -1.87688 L -0.65626 -1.34741 C 0.22260000000000002 -0.70199 0.8692300000000001 0.21028000000000002 1.18715 1.2532999999999999 L 1.3772199999999999 1.8768799999999999" stroke-linecap="round" />
</g>
<g transform="matrix(0.86 0 0 0.88 32.19 26.16)" id="dCrF4V42PsqhvKwuop9p_"  >
<path style="stroke: rgb(255,243,18); stroke-width: 0.5; stroke-dasharray: none; stroke-linecap: butt; stroke-dashoffset: 0; stroke-linejoin: miter; stroke-miterlimit: 4; fill: rgb(255,255,255); fill-opacity: 0; fill-rule: nonzero; opacity: 1;" vector-effect="non-scaling-stroke"  transform=" translate(0, 0)" d="M -2.50467 -3.53352 L -1.86715 -3.1754700000000002 C 0.25349999999999984 -1.9844400000000002 1.76029 0.06020999999999965 2.26998 2.43843 L 2.50467 3.5335199999999998" stroke-linecap="round" />
</g>
<g transform="matrix(1.04 0 0 1.06 30.16 29.27)" id="RDq1BM4zFOBcw2Z1ryEo-"  >
<path style="stroke: rgb(255,243,18); stroke-width: 1; stroke-dasharray: none; stroke-linecap: butt; stroke-dashoffset: 0; stroke-linejoin: miter; stroke-miterlimit: 4; fill: rgb(255,255,255); fill-opacity: 0; fill-rule: nonzero; opacity: 1;" vector-effect="non-scaling-stroke"  transform=" translate(0, 0)" d="M 0 0" stroke-linecap="round" />
</g>
<g transform="matrix(1.04 0 0 1.06 15.43 26.52)" id="mi1PVFCCEXIo17F2fi8z_"  >
<path style="stroke: rgb(255,243,18); stroke-width: 1; stroke-dasharray: none; stroke-linecap: butt; stroke-dashoffset: 0; stroke-linejoin: miter; stroke-miterlimit: 4; fill: rgb(255,255,255); fill-opacity: 0; fill-rule: nonzero; opacity: 1;" vector-effect="non-scaling-stroke"  transform=" translate(0, 0)" d="M 0 0" stroke-linecap="round" />
</g>
</svg>