<?xml version="1.0" encoding="UTF-8" standalone="no" ?>
<!DOCTYPE svg PUBLIC "-//W3C//DTD SVG 1.1//EN" "http://www.w3.org/Graphics/SVG/1.1/DTD/svg11.dtd">
<svg xmlns="http://www.w3.org/2000/svg" xmlns:xlink="http://www.w3.org/1999/xlink" version="1.1" width="60" height="60" viewBox="0 0 60 60" xml:space="preserve">
<desc>Created with Fabric.js 4.6.0</desc>
<defs>
</defs>
<g transform="matrix(1.46 0 0 1.42 27.77 28.74)" id="BuuDxON4ju5s0n4sV2nUn"  >
<path style="stroke: rgb(255,243,18); stroke-width: 1; stroke-dasharray: none; stroke-linecap: butt; stroke-dashoffset: 0; stroke-linejoin: miter; stroke-miterlimit: 4; fill: none; fill-rule: nonzero; opacity: 1;" vector-effect="non-scaling-stroke"  transform=" translate(0, 0)" d="M 0 -13.69863 C 7.56164 -13.69863 13.69863 -7.56164 13.69863 0 C 13.69863 7.56164 7.56164 13.69863 0 13.69863 C -7.56164 13.69863 -13.69863 7.56164 -13.69863 0 C -13.69863 -7.56164 -7.56164 -13.69863 0 -13.69863 z" stroke-linecap="round" />
</g>
<g transform="matrix(0.78 0 0 0.87 27.56 28.72)" id="Ov0fOLXkFvvRYPo0IUWbq"  >
<path style="stroke: rgb(255,243,18); stroke-width: 1; stroke-dasharray: none; stroke-linecap: butt; stroke-dashoffset: 0; stroke-linejoin: miter; stroke-miterlimit: 4; fill: rgb(255,255,255); fill-opacity: 0; fill-rule: nonzero; opacity: 1;" vector-effect="non-scaling-stroke"  transform=" translate(0, 0)" d="M -15.99172 -7.84718 C -16.0755 -7.99371 -16.06846 -8.16893 -15.97314 -8.30963 C -15.877820000000002 -8.450330000000001 -15.70796 -8.53622 -15.52485 -8.53631 L -9.265260000000001 -8.53936 L -9.265260000000001 -8.53936 C -9.034740000000001 -8.53947 -8.824700000000002 -8.42023 -8.725550000000002 -8.232940000000001 L -4.428490000000002 -0.11611000000000082 L -4.428490000000002 -0.11611000000000082 C -4.3551600000000015 0.02240999999999918 -4.184820000000002 0.09656999999999918 -4.018620000000002 0.062349999999999184 C -3.852420000000002 0.028119999999999187 -3.734870000000002 -0.10532000000000083 -3.7357700000000023 -0.2587600000000008 L -3.7738200000000024 -6.71952 L -3.7738200000000024 -6.71952 C -3.7739000000000025 -6.73241 -3.7797400000000025 -6.74474 -3.7900400000000025 -6.7537 L -4.997550000000002 -7.8052 L -5.543520000000002 -8.27626 L -5.543520000000002 -8.27626 C -5.602550000000002 -8.32719 -5.620860000000002 -8.405460000000001 -5.589670000000002 -8.47349 C -5.558480000000002 -8.54151 -5.484150000000001 -8.58539 -5.402400000000002 -8.58403 L 3.382839999999998 -8.43851 L 3.382839999999998 -8.43851 C 3.4421099999999982 -8.43753 3.4985199999999983 -8.415370000000001 3.539619999999998 -8.376930000000002 C 3.580719999999998 -8.338480000000002 3.603149999999998 -8.28691 3.601949999999998 -8.233570000000002 L 3.4203499999999982 -0.14078000000000124 L 3.4203499999999982 -0.14078000000000124 C 3.4202999999999983 -0.13834000000000124 3.4221299999999983 -0.13619000000000123 3.4247699999999983 -0.13560000000000125 C 3.4274099999999983 -0.13502000000000125 3.4301399999999984 -0.13616000000000125 3.4313499999999983 -0.13835000000000125 L 7.880849999999998 -8.200930000000001 L 7.880849999999998 -8.200930000000001 C 7.9875599999999976 -8.394290000000002 8.207899999999999 -8.515580000000002 8.447789999999998 -8.513000000000002 L 15.109809999999998 -8.441290000000002 L 15.109809999999998 -8.441290000000002 C 15.237629999999998 -8.439910000000003 15.355899999999998 -8.380150000000002 15.423739999999997 -8.282650000000002 C 15.491579999999997 -8.185150000000002 15.499689999999998 -8.063310000000001 15.445259999999998 -7.959220000000002 L 10.791619999999998 0.9399699999999989 L 10.791619999999998 0.9399699999999989 C 10.745829999999998 1.0275399999999988 10.754749999999998 1.1303399999999988 10.815099999999997 1.210449999999999 L 15.987739999999999 8.07695 L 15.987739999999999 8.07695 C 16.063329999999997 8.17729 16.070539999999998 8.30715 16.006449999999997 8.41377 C 15.942359999999997 8.520389999999999 15.817639999999997 8.58603 15.682959999999998 8.58401 L 8.217299999999998 8.472119999999999 L 8.217299999999998 8.472119999999999 C 8.055269999999998 8.469689999999998 7.905499999999998 8.393969999999998 7.818909999999998 8.27071 L 4.345169999999998 3.3257199999999996 L 4.345169999999998 3.3257199999999996 C 4.308519999999998 3.2735499999999997 4.245219999999998 3.2414299999999994 4.176659999999997 3.2402099999999994 L 2.582539999999997 3.2117899999999993 L 2.582539999999997 3.2117899999999993 C 2.5495499999999973 3.2111999999999994 2.5176899999999973 3.222559999999999 2.4940999999999973 3.2433299999999994 C 2.4705099999999973 3.2640899999999995 2.4571799999999975 3.292509999999999 2.4571099999999975 3.3221999999999996 L 2.4450599999999976 7.91968 L 2.4450599999999976 7.91968 C 2.4446399999999975 8.079419999999999 2.3722799999999977 8.23218 2.2445099999999973 8.34306 C 2.1167399999999974 8.45394 1.9444699999999973 8.51346 1.7670799999999973 8.50803 L -3.1281000000000025 8.358179999999999 L -3.1281000000000025 8.358179999999999 C -3.3628200000000024 8.35099 -3.5923700000000025 8.294139999999999 -3.7981200000000026 8.192229999999999 L -3.7994700000000026 8.191559999999999 L -3.7994700000000026 8.191559999999999 C -6.726010000000002 6.742039999999999 -9.071720000000003 4.500749999999999 -10.504440000000002 1.7850599999999988 L -10.744670000000003 1.3297099999999988 z" stroke-linecap="round" />
</g>
</svg>